<?xml version="1.0" encoding="UTF-8"?>
<svg data-bbox="14.29 14.29 762.42 762.428" viewBox="0 0 791 791" height="791" width="791" xmlns="http://www.w3.org/2000/svg" data-type="ugc">
    <g>
        <g>
            <path d="M776.71 395.51c0 178.75-123.05 328.78-289.07 370q-12.19 3-24.68 5.27a385.65 385.65 0 0 1-114.93 3q-12.57-1.56-24.89-3.94C147.22 736 14.29 581.3 14.29 395.51 14.29 185 185 14.29 395.5 14.29S776.71 185 776.71 395.51Z" stroke="#000000" stroke-miterlimit="10" fill="#ffffff" stroke-width="28.59"/>
            <path fill="#ff4a2c" d="m356.08 691.39-30.78-22.2V549.68l131.24-8.25 7.65 20.98 8 62.2-19.76 65.22-32.66 6.2-63.69-4.64z"/>
            <path d="m453.73 545.73 6.44 17.66 7.83 60.87-18.79 62-29.68 5.64-62-4.51-28.13-20.3V553.54l124.33-7.81m5.61-8.59-6.13.39-124.32 7.81-7.7.48v125.47l3.41 2.46L352.73 694l1.89 1.37 2.32.16 62 4.51 1.07.08 1.06-.2 29.68-5.64 4.89-.92 1.44-4.76 18.79-62 .51-1.69-.23-1.74-7.83-60.87-.12-.91-.31-.86-6.45-17.66-2.1-5.77Z" fill="#ff4a2c"/>
            <path d="m221.21 545.14-18.45-50.54V315.15l7.56-1.44c0-.17-.37-4.56-.37-4.56l4.05-.38c133.1-12.38 245.2-20.77 359.6-21.19h3.4s.92 4.77 1 5.47l13.36-.49.57 3.59c.16 1 .32 2 .47 3 4.79 31.22 5.29 38.36 4.7 40.86.17 8.38 12.6 89.39 21.07 142.71l.12.77-12.86 58.24-75.25 4.35-178.38 7.52Z" fill="#ff4a2c"/>
            <path d="M573.62 291.69c.36 1.87.73 3.74 1.1 5.59l13.22-.49c.15 1 .31 1.95.46 3 2.63 17.09 5.61 38 4.73 39.31-1.51 2.25 21 144.29 21 144.29l-12 54.43L530 542l-178.1 7.48-127.75-8.26-17.29-47.35V318.55l7.87-1.5c-.12-1.34-.23-2.72-.35-4.19 119.69-11.14 239-20.69 359.24-21.17m6.79-8.25h-6.82c-114.56.47-226.76 8.82-360 21.21l-8.08.75.4 4.93-.61.12-6.67 1.27v183.6l.5 1.37L216.44 544l1.83 5 5.35.34 127.75 8.27h.88l178.1-7.52h.13l72.14-4.09 6.21-.36 1.34-6.07 12-54.44.34-1.52-.25-1.54c-7.92-49.93-20.39-131-21-141.71.48-2.69.11-6.93-1.06-16.08-.84-6.52-2.08-15.19-3.71-25.77-.16-1-.31-2-.47-3l-1.15-7.18-7.26.27-6.21.23-1-5.37Z" fill="#ff4a2c"/>
            <path d="M608.25 346.29c-2.55-14.88-5.86-29.67-8.93-44.23v-.11c-.21-1-.41-2-.62-3s-.37-1.73-.54-2.58l-10.19.38-12.8.47h-.43c.22 1.15.45 2.28.67 3.43a1.29 1.29 0 0 0 0 .19c.16.84.33 1.67.5 2.5.06.31.12.61.19.92 3.1 15.42 6.21 30.22 8.52 45.13 4.47 28.95 8.88 57.95 11.8 87.09 2.86 28.5 3.67 57.2-3.87 85.38-.59 2.19-1.28 4.36-2.23 7.57-16.8 0-33.05-.36-49.27.08-28.36.79-56.77 1.51-85.07 3.27-64.73 4-129.48 6.21-194.3 4.06-9.86-.31-19.67-3.23-29.44-5.32-5.46-1.15-7.58-5.72-8.14-10.68-1.16-10.21-2.3-20.43-2.71-30.67-2-53-3.86-106.06-5.79-159.11 0-1.22-.09-2.42-.13-3.63v-.85c-.08-1.95-.23-3.9-.4-6-.1-1.18-.21-2.39-.32-3.65l-4.05.77-3.82.73-15 2.82c.06 1.38.13 2.76.19 4.14l.12 2.68v1.01c1.48 33.84 3.14 66.91 4 100 .67 27-.9 54-.08 81 1 31.63 13.36 42.34 42.42 48 13.37 2.57 27.31 2.37 41 2.87 2.18.07 4.36.12 6.55.17h4.86c2.05 0 13.08-.27 28.63-.7l9.7-.26 14.36-.4c35.62-1 80.11-2.31 103.18-3l10.77-.32 4.71-.14 9.11-.23c25.65-.65 51.3-1.34 76.94-1.8 13.06-.24 26.17.81 39.17-.09 16.38-1.13 28.75-8 30.43-24.93 2-20.49 3.7-41.12 3.66-61.69.03-40.7-6.49-81.06-13.35-121.27Z"/>
            <path d="M600.13 436.23C597.3 408 593.1 380 588.3 349c-2-13.12-4.62-25.95-7.38-39.52-.36-1.77-.72-3.54-1.08-5.33l-.18-.88-3.72.24c.06.31.12.61.19.92 3.1 15.42 6.21 30.22 8.52 45.13 4.47 28.95 8.88 57.95 11.8 87.09 2.86 28.5 3.67 57.2-3.87 85.38-.59 2.19-1.28 4.36-2.23 7.57-16.8 0-33.05-.36-49.27.08-28.36.79-56.77 1.51-85.07 3.27-64.73 4-129.48 6.21-194.3 4.06-9.86-.31-19.67-3.23-29.44-5.32-5.46-1.15-7.58-5.72-8.14-10.68-1.16-10.21-2.3-20.43-2.71-30.67-2-53-3.86-106.06-5.79-159.11 0-1.22-.09-2.42-.13-3.63l-.06-.84-3.67.23v.74c.05 1.26.09 2.51.14 3.78l1.86 52c1.25 35.06 2.54 71.31 3.92 107 .42 10.56 1.64 21.39 2.73 30.95.86 7.62 4.78 12.55 11 13.88 2.31.49 4.62 1 6.95 1.57 7.51 1.76 15.27 3.57 23.13 3.82 57.44 1.9 119.3.61 194.66-4.07 26.68-1.65 53.91-2.4 80.25-3.13l4.69-.13c11.11-.3 22-.22 33.58-.15q7.72.06 15.59.07h2.76l.78-2.64.82-2.74c.55-1.81 1-3.37 1.44-4.93 8.21-30.43 6.65-60.94 4.06-86.78ZM206.87 322.3l1.15-.22-1.15.21Zm414.51 85.54c-2.45-20.13-5.8-40.62-9.49-62.17-2.07-12.12-4.67-24.27-7.18-36-.56-2.61-1.11-5.21-1.66-7.82v-.13c-.25-1.17-.49-2.35-.74-3.52-.19-.85-.36-1.68-.52-2.5l-.61-3.1-3.16.12-23.41.87h-1.25l-3.07.11 1.51 7.71.45 2.25q.72 3.62 1.46 7.2c2.73 13.48 5.3 26.23 7.31 39.17 4.79 31 9 58.88 11.78 86.89 2.53 25.18 4.06 54.86-3.76 84.07-.39 1.44-.82 2.88-1.37 4.69v.13q-6.44 0-12.79-.07c-11.62-.08-22.6-.15-33.83.16l-4.7.13c-26.39.72-53.69 1.48-80.5 3.14-75.12 4.66-136.76 5.95-194 4.06-7.13-.23-14.53-2-21.69-3.63-2.36-.55-4.73-1.11-7.1-1.61-1.23-.26-4.49-.95-5.23-7.48-1.12-9.9-2.28-20.12-2.69-30.41-1.37-35.65-2.67-71.89-3.92-106.94q-1-27.9-2-55.73v-1.01c-.13-2.73-.37-5.48-.62-8.37l-.46-5.44-3.65.69-.38.08-3.21.6-19.59 3.71-3.15.6.46 10.09v.93q.47 10.53.93 20.94c1.23 27.15 2.38 52.79 3 79 .32 13 .12 26.21-.08 39-.21 13.77-.43 28 0 42.05 1 31.7 12.85 45.17 45.41 51.46 11 2.11 22.31 2.4 33.29 2.69 2.78.07 5.55.14 8.33.24 2.19.08 4.39.12 6.61.17h5.04c2.32 0 13-.27 28.53-.69l9.7-.26 14.42-.4c30.88-.87 70.23-2 103.91-3h1.56l9.75-.28 3.47-.1 10-.26 6.28-.16c22.88-.59 46.53-1.19 69.78-1.62 5.14-.09 10.4 0 15.49.12 7.8.17 15.88.34 23.87-.21 25.84-1.79 32.67-16.36 33.85-28.25 1.84-18.5 3.71-40.33 3.67-62.07a501.67 501.67 0 0 0-4.05-59.84Zm-7 121.25c-1.32 13.37-10.16 20.43-27 21.61-7.66.52-15.56.36-23.21.2-5.16-.11-10.49-.22-15.78-.13-23.27.43-46.94 1-69.83 1.62l-8 .21-8.21.21-6 .18-7.31.21-2.91.09c-22.57.66-66.89 2-102.44 3l-14.32.39-9.7.27c-15.32.42-26.26.69-28.53.69h-.1c-1.61 0-3.22 0-4.81-.05q-3.25-.06-6.48-.16-4.18-.15-8.39-.25c-10.69-.28-21.73-.56-32.09-2.56-29.33-5.67-38.55-16.05-39.43-44.43-.42-13.86-.2-28 0-41.7.2-12.89.4-26.2.08-39.33-.67-26.29-1.83-52-3.05-79.16q-.41-8.62-.78-17.33c0-1.2-.11-2.4-.16-3.6V328l-.12-2.72v-.83l11.11-2.11 1.15-.22 1.06-.2 2.32-.44c.08.9.15 1.77.2 2.62s.14 1.93.17 2.87v.74c.05 1.26.09 2.51.14 3.78l1.86 52c1.25 35.06 2.54 71.31 3.92 107 .42 10.56 1.64 21.39 2.73 30.95.86 7.62 4.78 12.55 11 13.88 2.31.49 4.62 1 6.95 1.57 7.51 1.76 15.27 3.57 23.13 3.82 57.44 1.9 119.3.61 194.66-4.07 26.68-1.65 53.91-2.4 80.25-3.13l4.69-.13c11.11-.3 22-.22 33.58-.15q7.72.06 15.59.07h2.76l.78-2.64.82-2.74c.55-1.81 1-3.37 1.44-4.93 8.13-30.35 6.57-60.86 4-86.7C597.3 408 593.1 380 588.3 349c-2-13.12-4.62-25.95-7.38-39.52-.36-1.77-.72-3.54-1.08-5.33l-.18-.88c-.14-.72-.29-1.44-.43-2.16 0-.08 0-.16-.05-.24l9.34-.35 6.63-.25.42 2a.29.29 0 0 0 0 .09c0 .21.08.42.13.63.58 2.76 1.17 5.52 1.76 8.3 2.5 11.66 5.08 23.74 7.13 35.7 7.28 42.75 13.33 81.36 13.42 120.86.06 21.32-1.79 42.92-3.62 61.24Zm-407.51-206.8 1.15-.22Z"/>
            <path d="M346.59 468.78q52.73 4.22 105.46 8.47c4.88.4 8.73 2.66 8 8.14-.62 4.92-4.41 6.52-9.15 6.14q-52.05-4.18-104.1-8.31c-.46 0-.91-.12-1.36-.18-4.76-.54-8.88-2.26-8.43-7.85s4.8-6.67 9.58-6.41Z"/>
            <path d="M462.92 476.84c-2.25-2.76-5.86-4.42-10.45-4.8q-39.95-3.26-79.92-6.43l-25.54-2h-.14c-12.7-.69-14.74 7.61-15 11.21s.41 12 13 13.47l.38.06c.39.05.77.11 1.17.14l29.43 2.34 74.66 6c.57.05 1.13.07 1.68.07 7.28 0 12.23-4 13.08-10.76a11.79 11.79 0 0 0-2.35-9.3Zm-8 7.9c-.12.9-.23 1.85-3.55 1.57l-74.66-5.95-29.45-2.36a3 3 0 0 1-.43-.06l-.76-.1c-3.95-.45-3.89-1.2-3.81-2.24s.13-1.65 2.9-1.65h1.08l25.48 2q40 3.2 79.9 6.43c2 .16 3 .71 3.17 1a2.16 2.16 0 0 1 .11 1.36Z"/>
            <path d="M421.76 423.35c-1.83 7-3.86 16.88-7.05 26.38-2.65 7.91-10.94 9.43-16.22 3a128.63 128.63 0 0 1-14.26-20.83c-4.71-8.79-.2-17.09 9.5-19.11 5.59-1.17 11.21-2.24 16.87-3 7.57-1 11.69 3.04 11.16 13.56Z"/>
            <path d="M465.11 335c-.07 9.7-6.22 15.72-15.89 15.54-11.2-.21-18.34-6.49-18.23-16 .11-10.35 7.18-16.59 18.51-16.37 9.73.11 15.69 6.55 15.61 16.83Z"/>
            <path d="M342.71 374.68c0 8.38-7 15.51-15.19 15.48-8.73 0-16.34-7.18-16.28-15.33A16.15 16.15 0 0 1 327 359a15.64 15.64 0 0 1 15.71 15.68Z"/>
            <path d="M453.37 702.31q5.94 10.92 11.81 21.76c7.39 13.6 14.93 27.51 22.46 41.42q-12.19 3-24.68 5.27c-8.14-15-16.44-29.93-24.51-44.5q-5.55-10-11.06-20l-51.77-5.45q-10.2 27-20.4 53.93l-7.19 19q-12.57-1.56-24.89-3.94l27.56-73.19a23.78 23.78 0 0 1-6.16-1.94l-.85-.43c-6.61-3.29-13.45-6.7-19.24-11.66-4.59-3.93-5.36-11.59-5.41-15.8-.23-19.65-.2-39.64-.17-59v-14.12l-2.05.06 1.05-23.41 1.81-.49v-13.68a7.94 7.94 0 0 1 2.42-5.69 7.82 7.82 0 0 1 5.76-2.21c2 .08 4.72.18 6.94.29 3.92.19 7.95.39 8.73 4.12a6.73 6.73 0 0 1 .14 1.41v5.88c0 1.23 0 2.47.06 3.7s0 2.39 0 3.58l.13 9.35c.2 14.9.42 30.31.5 45.48.07 11.85-.13 23.89-.33 35.52l-.11 7.14c0 2.54.57 5.24 5.37 6l3.58.54c25 3.78 50.91 7.7 76.42 10.67 9.76 1.12 12.27-.71 15.84-11.62 10.57-32.25 11.39-67.22 2.47-109.64-.25-1.22-.51-2.44-.79-3.67-.14-.66-.29-1.33-.44-2l5-1.34-5 1.19c0-.14-.07-.29-.1-.44l-.21-1.08-1-5.15h24.27l1.15 4.46.95 3.67.57 2.2c.13.49.25 1 .38 1.47.46 1.8.93 3.61 1.41 5.45l1.58.14v.18l.75 3.61c.85 4 2 9.85 2.92 14.53l1.25 6.67.07.35-2.75-.34v26.62c17.28 11.48 18.81 25.64 16.92 35.71-2.7 14.31-10.48 22-25.79 25.18-2.94 8.45-6.97 17.99-15.37 24.24Z"/>
            <path d="M556.71 650a195.55 195.55 0 0 0-3.11-54.76c-3.64-17.73-12-25.38-28.93-26.4l-11.57-.68q-17.18-1-34.35-2.07c-1.78-.12-3.6-.38-5.52-.65l-8.72-1.2 1.52 7.26c.84 4 2 9.73 2.88 14.31l.74 4 4 .29 13.69 1c12.11.9 24.62 1.82 36.93 2.57 3.11.2 4.16 1.18 4.49 4.21l.52 4.82c1.2 11.08 2.44 22.54 3 33.78.35 6.43.25 13.08.15 19.51-.07 4.07-.13 8.27-.08 12.43a14.06 14.06 0 0 0 3.89 10.2 11.88 11.88 0 0 0 8.47 3.26h.29a11.67 11.67 0 0 0 8.55-3.48c1.65-1.72 3.58-4.92 3.41-10.39 0-1.51-.11-3-.18-4.54a113.65 113.65 0 0 1-.07-13.47Z"/>
            <path d="M320.11 569.15c-1.93.27-3.75.53-5.52.64q-17.62 1.11-35.26 2.13l-10.67.63c-16.91 1-25.29 8.67-28.93 26.4a195.55 195.55 0 0 0-3.11 54.76 113.48 113.48 0 0 1-.06 13.41c-.07 1.52-.13 3-.18 4.55-.16 5.46 1.76 8.66 3.41 10.39a11.65 11.65 0 0 0 8.55 3.48h.23a11.84 11.84 0 0 0 8.47-3.27c2.5-2.44 3.85-6 3.9-10.19s0-8.36-.09-12.42c-.1-6.44-.2-13.09.15-19.53.59-11.24 1.84-22.71 3-33.81l.52-4.78c.32-3 1.37-4 4.47-4.21 12.32-.75 24.84-1.68 36.94-2.57l13.69-1 4-.29.74-4c.86-4.57 2-10.31 2.88-14.32l1.52-7.25Z"/>
            <path d="M291.05 561.29h-4.86a23.37 23.37 0 0 1 4.86 0Z"/>
            <path d="m215.25 323.783.55 7.37-23.216 1.729-.55-7.37 23.216-1.729z"/>
            <path d="m191.93 321.37 14.94-2.82 7.86-1.5-22.8 4.32z"/>
            <path d="m192.61 325-1.37-7.26 22.8-4.32 1.39 7.26-22.82 4.32z"/>
            <path d="m575.4 300.72 13-.96 10.27-.78-23.27 1.74z"/>
            <path d="m575.67 304.41-.55-7.37 23.27-1.74.56 7.37-23.28 1.74z"/>
            <path d="m598.012 292.686.275 7.385-23.414.871-.275-7.385 23.414-.87z"/>
            <path d="m184.36 328.71 167.07-10.78 167.06-10.77 93.76-6c6.74-.44 13.26-5.64 12.93-12.94-.29-6.64-5.7-13.4-12.93-12.94L445.19 286l-167.06 10.79-93.77 6c-6.73.44-13.26 5.64-12.93 12.94.3 6.64 5.7 13.4 12.93 12.94Z"/>
            <path d="M599.32 177.42c5.64 4.24 11.41 8.29 17 12.61l-2.62-2a196.71 196.71 0 0 1 25.88 23.58q3.78 4.18 7.24 8.64l-2-2.61a131.7 131.7 0 0 1 17.18 29.2l-1.3-3.09a129.57 129.57 0 0 1 8.83 32.63l-.47-3.44q.74 5.49 1 11L683 271c-25.45 1.31-50.88 3.19-76.32 4.75q-10.51.64-21 1.19a13.66 13.66 0 0 0-9.14 3.79 12.94 12.94 0 0 0 0 18.3c2.45 2.25 5.71 4 9.14 3.79 25.46-1.31 50.88-3.19 76.32-4.75q10.51-.65 21-1.19c3.27-.17 6.86-1.29 9.15-3.79s4-5.72 3.79-9.15c-1.45-25.61-9.08-50.63-23.46-72-10.86-16.12-24.55-29.84-39.85-41.74-6.66-5.18-13.53-10.07-20.27-15.14-2.51-1.88-7.1-2.09-10-1.3a12.95 12.95 0 0 0-9 15.91l1.31 3.09a13.06 13.06 0 0 0 4.64 4.64Z"/>
            <path d="M573.41 237.39c.7.27 1.4.54 2.09.83l-3.09-1.3a66.4 66.4 0 0 1 14.66 8.6l-2.62-2a70.82 70.82 0 0 1 12.33 12.38l-2-2.62a70.27 70.27 0 0 1 9 15.47l-1.31-3.09a65.8 65.8 0 0 1 4.47 16.4c.4 3 3.5 6.31 5.95 7.74a12.94 12.94 0 0 0 17.7-4.65l1.3-3.09a12.92 12.92 0 0 0 0-6.87A75.32 75.32 0 0 0 621 245.73a84.77 84.77 0 0 0-23.72-24.67 78.79 78.79 0 0 0-16.94-8.62c-3-1.13-7.34-.23-10 1.31a13.16 13.16 0 0 0-5.94 7.73c-.76 3.31-.6 7 1.3 10l2 2.62a12.87 12.87 0 0 0 5.71 3.33Z"/>
            <path d="M106.5 453.34a82.65 82.65 0 0 1-9.23-16.5l1.3 3.09A115.16 115.16 0 0 1 91 411l.46 3.44c-2.29-17.26-1.63-34.82.66-52.05l-.46 3.44a248.57 248.57 0 0 1 7.57-36.41q1-3.35 2.1-6.65l-12.47 9.5q28.65-1.11 57.31-2.05c10.5-.34 21-.65 31.49-1.07q10.16-.39 20.32-.9a13.63 13.63 0 0 0 9.15-3.79 12.93 12.93 0 0 0 0-18.29c-2.46-2.26-5.71-4-9.15-3.79q-16.65.8-33.32 1.37c-12.72.42-25.45.81-38.18 1.25q-18.81.66-37.62 1.4a13.42 13.42 0 0 0-12.48 9.5C71 331.58 68 348.16 66 364.62c-2.75 22.08-2.69 44.94 2.61 66.66 3 12.41 8.05 24.75 15.59 35.12 2 2.81 4.27 5 7.73 6a13.2 13.2 0 0 0 10-1.31 13 13 0 0 0 5.94-7.73c.73-3.2.71-7.2-1.3-10Z"/>
            <path d="M155.57 386.69q-1.51-2.78-2.76-5.68l1.3 3.09a68.42 68.42 0 0 1-4.68-17.26l.47 3.43a71.28 71.28 0 0 1 0-18.4l-.46 3.44a69.37 69.37 0 0 1 4.71-17.31l-1.3 3.09a65.86 65.86 0 0 1 5.21-9.86c3.66-5.7 1.35-14.53-4.65-17.7a13.23 13.23 0 0 0-17.7 4.65c-12 18.61-15.18 42.51-9.59 63.82a79.07 79.07 0 0 0 7.11 17.7c3.24 5.95 11.94 8.35 17.7 4.65a13.22 13.22 0 0 0 4.64-17.7Z"/>
            <path d="M295.85 231.29a170.14 170.14 0 0 1-.76-25 148.34 148.34 0 0 0-.51-20.69v-.22a9.35 9.35 0 0 0-1.86-8.07 9.78 9.78 0 0 0-7.85-3.35 88.74 88.74 0 0 0-10 1.06l-1.33.19c-1.77.25-3.5.6-5.19.94-.1-1.17-.21-2.35-.3-3.51-.45-5.24-.88-10.18-1.22-15.19a33.62 33.62 0 0 1 0-3.74 38.2 38.2 0 0 0 0-4.42c-.28-3.83-1.92-5.88-3.25-6.93s-3.68-2.15-7.44-1.52c-2 .34-4 .48-6.17.63l-2.49.18-11 .91c-7.56.62-15.38 1.28-23.06 2-4.79.42-8.34 3.48-9 7.78-1.23 7.67-.3 15.23.6 22.55.14 1.16.28 2.32.41 3.47.49 4.15 1.13 8.31 1.75 12.34.2 1.31.4 2.61.59 3.92l.35 2.32c.6 4 1.21 8.15 1.94 12.24.3 1.69.73 3.34 1.14 4.94.31 1.17.59 2.28.83 3.41.58 2.66 1.13 5.33 1.68 8 .74 3.62 1.51 7.36 2.33 11a7.77 7.77 0 0 0 8 5.92c3.08-.18 6.15-.37 9.23-.57 5.36-.33 10.9-.68 16.34-.93 6-.28 12.19-.45 18.14-.62l7.43-.21a3.1 3.1 0 0 1 .43 0h4.11c2.71 0 5.52 0 8.3-.1h.13a8.24 8.24 0 0 0 5.59-3 7.82 7.82 0 0 0 2.11-5.73Zm-72.46-48.6-2-21.35 19.33-1.58 8.87-.72.42 5.26c.36 4.59.73 9.35 1.17 14-8.53 1.25-16.87 2.54-26.08 4a15.22 15.22 0 0 0-1.71.39Zm45.54 40.6c-7.42.09-15.08.18-22.62.38-1.58 0-3.17.12-4.75.22-3.47.22-6.94.55-10.31.87h-.3c-.77-4.09-1.53-7.83-2.33-11.45-.62-2.78-1.3-5.58-2-8.3-.17-.7-.34-1.4-.5-2.1l-.12-1.41c0-.52-.11-1.09-.14-1.52l1.42-.3c12.07-2.42 24.33-4.24 36.46-5.43 3.85-.37 7.69-1.08 11.4-1.77l2.66-.48v17.87c0 4.36 0 8.86.11 13.31Z" stroke-width="2.25" stroke="#000000" stroke-miterlimit="10"/>
            <path d="m406.73 216.37-4.73-69.7v-.4a17.06 17.06 0 0 0-.32-2.68c-1.15-5.26-4-7.24-6.18-8a7.59 7.59 0 0 0-8.83 2.62 12.78 12.78 0 0 0-2.12 8.83l1 13c1.06 13.77 2.16 28 3.17 42 .29 4 .43 7.93.58 12.13l.09 2.41h-1.47c-3.7-.05-7.32-.11-10.94-.19-1.62 0-3.29-.12-4.9-.2-3-.14-6.19-.3-9.35-.19-7.9.28-15.88.83-23.6 1.36H339v-.53c.06-2.34.13-4.76 0-7.2-.5-8.59-1-17.18-1.57-25.78q-.74-12-1.46-23.91a70.87 70.87 0 0 1 .06-7.93c.13-2.34.07-5.78-2.05-8.71a9.3 9.3 0 0 0-5.58-3.74A7.79 7.79 0 0 0 322 141c-2 1.6-3.18 4.24-3.41 7.84a107 107 0 0 0-.06 12.81c.58 10.63 1.17 19.5 1.88 27.92.74 8.79 1.4 18.21 1.28 27.47v8c0 5 1.8 7.75 3.32 9.18a9.85 9.85 0 0 0 7.68 2.52c3.43-.2 6.86-.44 10.29-.67 5.45-.37 11.09-.75 16.62-1 4.55-.21 9.24-.15 13.77-.09h2.48c8.53.09 15.41.23 21.66.42a9.15 9.15 0 0 0 6.93-2.71 12.06 12.06 0 0 0 2.84-9.35l-.14-1.76c-.14-1.72-.29-3.46-.41-5.21Z" stroke-width="2.25" stroke="#000000" stroke-miterlimit="10"/>
            <path d="M508 209.51a30.51 30.51 0 0 0-4.88-4.36c-4.69-3.4-8.34-5.94-11.83-8.23-2.86-1.88-5.81-3.7-8.65-5.47-1.86-1.16-3.72-2.31-5.57-3.49-4.21-2.67-7.4-4.75-10.37-6.74-.86-.58-1.73-1.1-2.57-1.6-2.42-1.43-4.11-2.5-5.11-4.1 2.79-4 6.45-7.38 10.29-10.94 1.22-1.12 2.44-2.25 3.63-3.39 4.62-4.46 9.67-8.72 14.55-12.84 2-1.69 4-3.39 6-5.11 3.6-3.1 4.61-8.75 2.2-12.33a9.83 9.83 0 0 0-6.27-4.26 8.94 8.94 0 0 0-6.74 1.42 102 102 0 0 0-9.05 7.17c-5 4.3-9.14 8-13 11.53-3.69 3.41-7.21 6.92-11.1 10.82l-.29.3a65.27 65.27 0 0 1-.51-14 25.66 25.66 0 0 0 0-4.9 8.93 8.93 0 0 0-8.21-7.62c-3.6-.25-9.78.76-10.72 10.42a61.58 61.58 0 0 0 .25 11.22v.51c.23 2.74.58 5.47.92 8.11.23 1.79.46 3.63.65 5.44 1.29 12.07 2.44 23.12 3.51 33.8.16 1.54.27 3.15.37 4.7.18 2.57.36 5.22.76 7.87.11.69.2 1.39.29 2.09a31.64 31.64 0 0 0 2.5 10 9.47 9.47 0 0 0 7 5.29 8.85 8.85 0 0 0 2.11.11 9 9 0 0 0 5.95-2.76c3.43-3.49 2.76-7.47 2.27-10.37l-.1-.58c-.17-1.07-.35-2.13-.53-3.2-.54-3.17-1.09-6.44-1.47-9.63s-.6-6.28-.83-9.38c2.77 1.76 5.6 3.56 8.35 5.37 1.82 1.19 3.65 2.46 5.42 3.68s3.49 2.41 5.27 3.58c7.19 4.75 14.21 9.32 20.85 13.59a22.22 22.22 0 0 0 5 2.41 8.85 8.85 0 0 0 10-3.83c.84-1.47 3.44-5.95-.34-10.3Z" stroke-width="2.25" stroke="#000000" stroke-miterlimit="10"/>
        </g>
    </g>
</svg>
